<svg width="178" height="50" viewBox="0 0 178 50" fill="none" xmlns="http://www.w3.org/2000/svg">
<mask id="path-1-inside-1_796_3710" fill="white">
<path fill-rule="evenodd" clip-rule="evenodd" d="M49.8868 15.7059C51.8381 15.8207 53.3852 17.4395 53.3852 19.4196V30.5803C53.3852 32.5534 51.8491 34.1678 49.9075 34.2927C49.6521 34.9328 49.3714 35.5581 49.0668 36.1671C48.3722 37.5558 48.2332 39.2221 48.7195 40.6807L51.1503 48.1806C51.3591 48.944 50.6645 49.6387 49.9006 49.4304L41.8449 47.1387C40.4562 46.7914 38.9284 46.8612 37.6088 47.486C34.1366 49.2221 30.1786 50.125 26.0117 49.986C15.8949 49.7198 7.16618 43.2477 3.51944 34.2952C1.55818 34.1909 0 32.5675 0 30.5803V19.4196C0 17.4405 1.5454 15.8224 3.4953 15.7061C7.37207 6.02433 17.0928 -0.684561 28.3033 0.0557402C38.0833 0.6534 46.3753 6.98986 49.8868 15.7059Z"/>
</mask>
<path d="M49.8868 15.7059L47.1041 16.827L47.8141 18.5892L49.7107 18.7007L49.8868 15.7059ZM49.9075 34.2927L49.7148 31.2989L47.8236 31.4206L47.1212 33.1808L49.9075 34.2927ZM49.0668 36.1671L51.7499 37.5091L51.75 37.509L49.0668 36.1671ZM48.7195 40.6807L51.5734 39.7557L51.5695 39.7437L51.5655 39.7317L48.7195 40.6807ZM51.1503 48.1806L54.044 47.3891L54.0256 47.3219L54.0041 47.2557L51.1503 48.1806ZM49.9006 49.4304L49.0797 52.3159L49.0955 52.3204L49.1114 52.3247L49.9006 49.4304ZM41.8449 47.1387L42.6658 44.2532L42.6195 44.24L42.5728 44.2284L41.8449 47.1387ZM37.6088 47.486L36.3249 44.7747L36.2959 44.7884L36.2672 44.8027L37.6088 47.486ZM26.0117 49.986L26.1117 46.9877L26.1011 46.9873L26.0906 46.9871L26.0117 49.986ZM3.51944 34.2952L6.29778 33.1634L5.57966 31.4005L3.67875 31.2994L3.51944 34.2952ZM3.4953 15.7061L3.67388 18.7008L5.57308 18.5875L6.28032 16.8213L3.4953 15.7061ZM28.3033 0.0557402L28.1056 3.04922L28.113 3.04971L28.1203 3.05015L28.3033 0.0557402ZM56.3852 19.4196C56.3852 15.8416 53.5906 12.9186 50.0629 12.7111L49.7107 18.7007C50.0857 18.7228 50.3852 19.0373 50.3852 19.4196H56.3852ZM56.3852 30.5803V19.4196H50.3852V30.5803H56.3852ZM50.1002 37.2865C53.6103 37.0606 56.3852 34.1457 56.3852 30.5803H50.3852C50.3852 30.9611 50.0879 31.2749 49.7148 31.2989L50.1002 37.2865ZM51.75 37.509C52.0922 36.8248 52.4073 36.1227 52.6938 35.4046L47.1212 33.1808C46.8969 33.7429 46.6506 34.2915 46.3837 34.8251L51.75 37.509ZM51.5655 39.7317C51.3411 39.0589 51.3965 38.2156 51.7499 37.5091L46.3837 34.825C45.3478 36.8961 45.1252 39.3852 45.8735 41.6296L51.5655 39.7317ZM54.0041 47.2557L51.5734 39.7557L45.8657 41.6056L48.2964 49.1056L54.0041 47.2557ZM49.1114 52.3247C52.1125 53.143 54.8664 50.3956 54.044 47.3891L48.2566 48.9722C47.8518 47.4924 49.2164 46.1343 50.6897 46.536L49.1114 52.3247ZM41.024 50.0242L49.0797 52.3159L50.7214 46.5449L42.6658 44.2532L41.024 50.0242ZM38.8928 50.1974C39.4875 49.9158 40.2891 49.842 41.117 50.0491L42.5728 44.2284C40.6232 43.7408 38.3693 43.8065 36.3249 44.7747L38.8928 50.1974ZM25.9116 52.9844C30.5787 53.1401 35.0323 52.1284 38.9505 50.1693L36.2672 44.8027C33.241 46.3158 29.7784 47.11 26.1117 46.9877L25.9116 52.9844ZM0.741096 35.4269C4.81502 45.4282 14.5677 52.6859 25.9327 52.985L26.0906 46.9871C17.2222 46.7537 9.51734 41.0673 6.29778 33.1634L0.741096 35.4269ZM-3 30.5803C-3 34.171 -0.185293 37.1024 3.36012 37.2909L3.67875 31.2994C3.30164 31.2793 3 30.9641 3 30.5803H-3ZM-3 19.4196V30.5803H3V19.4196H-3ZM3.31671 12.7114C-0.208329 12.9216 -3 15.8435 -3 19.4196H3C3 19.0376 3.29914 18.7231 3.67388 18.7008L3.31671 12.7114ZM28.501 -2.93774C15.9325 -3.76771 5.04639 3.762 0.710271 14.5909L6.28032 16.8213C9.69775 8.28667 18.253 2.39859 28.1056 3.04922L28.501 -2.93774ZM52.6695 14.5848C48.7432 4.83941 39.4686 -2.26754 28.4863 -2.93867L28.1203 3.05015C36.698 3.57434 44.0073 9.1403 47.1041 16.827L52.6695 14.5848Z" fill="#2776EA" mask="url(#path-1-inside-1_796_3710)"/>
<path fill-rule="evenodd" clip-rule="evenodd" d="M26.6925 43.6011C36.9656 43.6011 45.2936 35.2731 45.2936 25C45.2936 14.7269 36.9656 6.39893 26.6925 6.39893C16.4194 6.39893 8.09143 14.7269 8.09143 25C8.09143 35.2731 16.4194 43.6011 26.6925 43.6011ZM17.392 24.6161C18.933 24.6161 20.1822 23.3669 20.1822 21.8259C20.1822 20.285 18.933 19.0358 17.392 19.0358C15.8511 19.0358 14.6019 20.285 14.6019 21.8259C14.6019 23.3669 15.8511 24.6161 17.392 24.6161ZM38.7833 21.8259C38.7833 23.3669 37.5341 24.6161 35.9931 24.6161C34.4522 24.6161 33.203 23.3669 33.203 21.8259C33.203 20.2849 34.4522 19.0357 35.9931 19.0357C37.5341 19.0357 38.7833 20.2849 38.7833 21.8259ZM26.6925 34.8704C29.2608 34.8704 31.3427 32.7884 31.3428 30.2202H22.0423V30.2383C22.0521 32.7982 24.1303 34.8704 26.6925 34.8704Z" fill="#2776EA"/>
<path d="M87.8638 19.348C87.7616 18.3168 87.3226 17.5156 86.5471 16.9446C85.7715 16.3736 84.7189 16.0881 83.3894 16.0881C82.486 16.0881 81.7232 16.2159 81.101 16.4716C80.4789 16.7188 80.0016 17.0639 79.6692 17.5071C79.3454 17.9503 79.1834 18.4531 79.1834 19.0156C79.1664 19.4844 79.2644 19.8935 79.4775 20.2429C79.6991 20.5923 80.0016 20.8949 80.3851 21.1506C80.7687 21.3977 81.2118 21.6151 81.7147 21.8026C82.2175 21.9815 82.7545 22.1349 83.3255 22.2628L85.6777 22.8253C86.8198 23.081 87.8681 23.4219 88.8226 23.848C89.7772 24.2741 90.6039 24.7983 91.3027 25.4205C92.0016 26.0426 92.5428 26.7756 92.9263 27.6193C93.3184 28.4631 93.5187 29.4304 93.5272 30.5213C93.5187 32.1236 93.1096 33.5128 92.2999 34.6889C91.4988 35.8565 90.3397 36.7642 88.8226 37.4119C87.3141 38.0511 85.4945 38.3707 83.3638 38.3707C81.2502 38.3707 79.4093 38.0469 77.8411 37.3991C76.2814 36.7514 75.0627 35.7926 74.1848 34.5227C73.3155 33.2443 72.8596 31.6634 72.8169 29.7798H78.1735C78.2331 30.6577 78.4846 31.3906 78.9277 31.9787C79.3795 32.5582 79.9803 32.9972 80.7303 33.2955C81.4888 33.5852 82.3454 33.7301 83.2999 33.7301C84.2374 33.7301 85.0513 33.5937 85.7417 33.321C86.4405 33.0483 86.9817 32.669 87.3652 32.1832C87.7488 31.6974 87.9405 31.1392 87.9405 30.5085C87.9405 29.9205 87.7658 29.4261 87.4164 29.0256C87.0755 28.625 86.5726 28.2841 85.9079 28.0028C85.2516 27.7216 84.4462 27.4659 83.4917 27.2358L80.6408 26.5199C78.4334 25.983 76.6905 25.1435 75.4121 24.0014C74.1337 22.8594 73.4988 21.321 73.5073 19.3864C73.4988 17.8011 73.9206 16.4162 74.7729 15.2315C75.6337 14.0469 76.8141 13.1222 78.3141 12.4574C79.8141 11.7926 81.5187 11.4602 83.4277 11.4602C85.3709 11.4602 87.067 11.7926 88.5158 12.4574C89.9732 13.1222 91.1067 14.0469 91.9164 15.2315C92.726 16.4162 93.1437 17.7884 93.1692 19.348H87.8638ZM102.748 38.3707C101.495 38.3707 100.378 38.1534 99.3983 37.7188C98.4182 37.2756 97.6426 36.6236 97.0716 35.7628C96.5091 34.8935 96.2278 33.8111 96.2278 32.5156C96.2278 31.4247 96.4281 30.5085 96.8287 29.767C97.2292 29.0256 97.7747 28.429 98.465 27.9773C99.1554 27.5256 99.9395 27.1847 100.817 26.9545C101.704 26.7244 102.633 26.5625 103.604 26.4688C104.746 26.3494 105.667 26.2386 106.366 26.1364C107.064 26.0256 107.572 25.8636 107.887 25.6506C108.202 25.4375 108.36 25.1222 108.36 24.7045V24.6278C108.36 23.8182 108.104 23.1918 107.593 22.7486C107.09 22.3054 106.374 22.0838 105.445 22.0838C104.465 22.0838 103.685 22.3011 103.106 22.7358C102.526 23.1619 102.143 23.6989 101.955 24.3466L96.9182 23.9375C97.1738 22.7443 97.6767 21.7131 98.4267 20.8438C99.1767 19.9659 100.144 19.2926 101.329 18.8239C102.522 18.3466 103.903 18.108 105.471 18.108C106.562 18.108 107.606 18.2358 108.603 18.4915C109.608 18.7472 110.499 19.1435 111.275 19.6804C112.059 20.2173 112.677 20.9077 113.128 21.7514C113.58 22.5866 113.806 23.5881 113.806 24.7557V38H108.641V35.277H108.488C108.172 35.8906 107.751 36.4318 107.222 36.9006C106.694 37.3608 106.059 37.723 105.317 37.9872C104.576 38.2429 103.719 38.3707 102.748 38.3707ZM104.307 34.6122C105.108 34.6122 105.816 34.4545 106.43 34.1392C107.043 33.8153 107.525 33.3807 107.874 32.8352C108.224 32.2898 108.398 31.6719 108.398 30.9815V28.8977C108.228 29.0085 107.993 29.1108 107.695 29.2045C107.405 29.2898 107.077 29.3707 106.711 29.4474C106.344 29.5156 105.978 29.5795 105.611 29.6392C105.245 29.6903 104.912 29.7372 104.614 29.7798C103.975 29.8736 103.417 30.0227 102.939 30.2273C102.462 30.4318 102.091 30.7088 101.827 31.0582C101.563 31.3991 101.431 31.8253 101.431 32.3366C101.431 33.0781 101.699 33.6449 102.236 34.0369C102.782 34.4205 103.472 34.6122 104.307 34.6122ZM118.031 38V18.3636H123.311V21.7898H123.515C123.873 20.571 124.474 19.6506 125.318 19.0284C126.162 18.3977 127.133 18.0824 128.233 18.0824C128.506 18.0824 128.8 18.0994 129.115 18.1335C129.43 18.1676 129.707 18.2145 129.946 18.2741V23.1065C129.69 23.0298 129.336 22.9616 128.885 22.902C128.433 22.8423 128.02 22.8125 127.645 22.8125C126.844 22.8125 126.128 22.9872 125.497 23.3366C124.875 23.6776 124.381 24.1548 124.014 24.7685C123.656 25.3821 123.477 26.0895 123.477 26.8906V38H118.031ZM145.354 29.6392V18.3636H150.8V38H145.571V34.4332H145.367C144.923 35.5838 144.186 36.5085 143.155 37.2074C142.132 37.9062 140.884 38.2557 139.409 38.2557C138.097 38.2557 136.942 37.9574 135.945 37.3608C134.948 36.7642 134.168 35.9162 133.605 34.8168C133.051 33.7173 132.77 32.4006 132.762 30.8665V18.3636H138.208V29.8949C138.216 31.054 138.527 31.9702 139.141 32.6435C139.754 33.3168 140.577 33.6534 141.608 33.6534C142.264 33.6534 142.878 33.5043 143.449 33.206C144.02 32.8991 144.48 32.4474 144.83 31.8509C145.188 31.2543 145.362 30.517 145.354 29.6392ZM165.716 18.3636V22.4545H153.596V18.3636H165.716ZM156.371 38V16.9446C156.371 15.5213 156.648 14.3409 157.202 13.4034C157.764 12.4659 158.531 11.7628 159.503 11.294C160.474 10.8253 161.578 10.5909 162.814 10.5909C163.649 10.5909 164.412 10.6548 165.102 10.7827C165.801 10.9105 166.321 11.0256 166.662 11.1278L165.69 15.2188C165.477 15.1506 165.213 15.0866 164.898 15.027C164.591 14.9673 164.275 14.9375 163.952 14.9375C163.15 14.9375 162.592 15.125 162.277 15.5C161.961 15.8665 161.804 16.3821 161.804 17.0469V38H156.371ZM169.043 38V18.3636H174.489V38H169.043ZM171.779 15.8324C170.969 15.8324 170.274 15.5639 169.695 15.027C169.124 14.4815 168.838 13.8295 168.838 13.071C168.838 12.321 169.124 11.6776 169.695 11.1406C170.274 10.5952 170.969 10.3224 171.779 10.3224C172.588 10.3224 173.279 10.5952 173.85 11.1406C174.429 11.6776 174.719 12.321 174.719 13.071C174.719 13.8295 174.429 14.4815 173.85 15.027C173.279 15.5639 172.588 15.8324 171.779 15.8324Z" fill="#0B0C0E"/>
</svg>
